<?xml version="1.0" encoding="UTF-8" standalone="no"?>
<svg
   xmlns:osb="http://www.openswatchbook.org/uri/2009/osb"
   xmlns:dc="http://purl.org/dc/elements/1.1/"
   xmlns:cc="http://creativecommons.org/ns#"
   xmlns:rdf="http://www.w3.org/1999/02/22-rdf-syntax-ns#"
   xmlns:svg="http://www.w3.org/2000/svg"
   xmlns="http://www.w3.org/2000/svg"
   xmlns:xlink="http://www.w3.org/1999/xlink"
   xmlns:sodipodi="http://sodipodi.sourceforge.net/DTD/sodipodi-0.dtd"
   xmlns:inkscape="http://www.inkscape.org/namespaces/inkscape"
   width="24"
   height="24"
   viewBox="0 0 24 24"
   version="1.1"
   id="svg6001"
   sodipodi:docname="concurrency_setting.svg"
   inkscape:version="0.92.4 (5da689c313, 2019-01-14)">
  <metadata
     id="metadata6007">
    <rdf:RDF>
      <cc:Work
         rdf:about="">
        <dc:format>image/svg+xml</dc:format>
        <dc:type
           rdf:resource="http://purl.org/dc/dcmitype/StillImage" />
      </cc:Work>
    </rdf:RDF>
  </metadata>
  <defs
     id="defs6005">
    <linearGradient
       id="linearGradient6017"
       osb:paint="solid">
      <stop
         style="stop-color:#ffffff;stop-opacity:1;"
         offset="0"
         id="stop6015" />
    </linearGradient>
    <linearGradient
       inkscape:collect="always"
       xlink:href="#linearGradient6017"
       id="linearGradient6019"
       x1="1"
       y1="12"
       x2="23"
       y2="12"
       gradientUnits="userSpaceOnUse" />
  </defs>
  <sodipodi:namedview
     pagecolor="#ffffff"
     bordercolor="#666666"
     borderopacity="1"
     objecttolerance="10"
     gridtolerance="10"
     guidetolerance="10"
     inkscape:pageopacity="0"
     inkscape:pageshadow="2"
     inkscape:window-width="1920"
     inkscape:window-height="1013"
     id="namedview6003"
     showgrid="false"
     inkscape:zoom="34.166667"
     inkscape:cx="12"
     inkscape:cy="12"
     inkscape:window-x="-9"
     inkscape:window-y="-9"
     inkscape:window-maximized="1"
     inkscape:current-layer="svg6001" />
  <path
     d="M0 0h24v24H0z"
     fill="none"
     id="path5997" />
  <path
     d="M5 2c0-.55-.45-1-1-1s-1 .45-1 1v4H1v6h6V6H5V2zm4 14c0 1.3.84 2.4 2 2.82V23h2v-4.18c1.16-.41 2-1.51 2-2.82v-2H9v2zm-8 0c0 1.3.84 2.4 2 2.82V23h2v-4.18C6.16 18.4 7 17.3 7 16v-2H1v2zM21 6V2c0-.55-.45-1-1-1s-1 .45-1 1v4h-2v6h6V6h-2zm-8-4c0-.55-.45-1-1-1s-1 .45-1 1v4H9v6h6V6h-2V2zm4 14c0 1.3.84 2.4 2 2.82V23h2v-4.18c1.16-.41 2-1.51 2-2.82v-2h-6v2z"
     id="path5999"
     style="fill-opacity:1;fill:url(#linearGradient6019)" />
</svg>
